<svg xmlns="http://www.w3.org/2000/svg" viewBox="0 0 640 400" role="img" aria-labelledby="title desc">
  <title id="title">Napkin</title>
  <desc id="desc">The Napkin logo.</desc>
  <rect width="640" height="400" rx="64" fill="#F7F3E8"/>
  <g transform="translate(320 200) scale(1.24) translate(-310 -210)">
    <path fill="#171512" d="M116 92H504Q532 92 532 120V198C532 270 474 328 402 328H116Q88 328 88 300V120Q88 92 116 92Z"/>
    <path
      fill="none"
      stroke="#F7F3E8"
      stroke-width="18"
      stroke-linecap="round"
      stroke-linejoin="round"
      d="M132 244C160 254 192 254 220 244C200 228 196 204 207 182C220 156 252 145 277 155C302 165 310 190 298 213C285 237 257 247 220 244C248 268 307 268 336 244C318 228 318 205 331 187C346 165 376 161 396 176C417 192 413 217 395 233C379 247 358 248 336 244C360 264 399 258 430 238C463 216 486 184 505 146"/>
  </g>
</svg>
